<?xml version="1.0" encoding="UTF-8"?>
<svg width="24px" height="24px" viewBox="0 0 24 24" version="1.1" xmlns="http://www.w3.org/2000/svg" xmlns:xlink="http://www.w3.org/1999/xlink">
    <title>shujugaojiguanli-click</title>
    <g id="数据高级管理1104" stroke="none" stroke-width="1" fill="none" fill-rule="evenodd">
        <g id="数据高级管理-BIM引擎4" transform="translate(-948.000000, -814.000000)">
            <g id="编组-4" transform="translate(24.000000, 24.000000)">
                <g id="编组-17" transform="translate(708.000000, 790.000000)">
                    <g id="shujugaojiguanli-click" transform="translate(216.000000, 0.000000)">
                        <rect id="矩形" x="0" y="0" width="24" height="24"></rect>
                        <g id="shujutongji" transform="translate(3.000000, 1.500000)" fill-rule="nonzero">
                            <path d="M1.82100001,20.1390098 C0.825493112,20.1472741 0.0109899696,19.3484702 0,18.3530445 L0,1.78596528 C0.0109899808,0.790539532 0.82549312,-0.00826428348 1.82100001,0 L9.21950822,0 C9.62184312,-7.39077227e-17 9.948,0.326156882 9.948,0.728491785 C9.948,1.13082669 9.62184312,1.45698357 9.21950822,1.45698357 L1.82100001,1.45698357 L1.82100001,1.45698357 C1.64109024,1.45970887 1.49652461,1.60604564 1.49600001,1.78596528 L1.49600001,18.3530445 C1.4965246,18.5329641 1.64109024,18.6793009 1.82100001,18.6820262 L1.82100001,20.1390098 Z" id="路径" fill="#C4C4C4"></path>
                            <path d="M14.394,2.31693576 L18,5.87573796 L18,20.0659493 C17.9640965,20.6089 17.5006109,21.023481 16.957,20.9988974 L16.957,20.9988974 L3.40000001,20.9988974 C2.85638907,21.023481 2.39290353,20.6089 2.35700001,20.0659493 L2.35700001,20.0659493 L2.35700001,3.2498839 C2.39290353,2.70693322 2.85638907,2.29235224 3.40000001,2.31693576 L3.40000001,2.31693576 L14.394,2.31693576 Z M7.074,11.8611159 L5.734,11.8611159 C5.63613248,11.8598479 5.54174392,11.8974478 5.47160334,11.9657092 C5.40146276,12.0339705 5.36131713,12.1273004 5.36,12.2251628 L5.36,12.2251628 L5.36,18.2990475 C5.36131713,18.3969098 5.40146276,18.4902397 5.47160334,18.5585011 C5.54174392,18.6267624 5.63613248,18.6643623 5.734,18.6630273 L5.734,18.6630273 L7.073,18.6630273 C7.17086752,18.6643623 7.26525608,18.6267624 7.33539666,18.5585011 C7.40553724,18.4902397 7.44568287,18.3969098 7.44799999,18.2990475 L7.44799999,18.2990475 L7.44799999,12.2251628 C7.44668286,12.1273004 7.40653724,12.0339705 7.33639666,11.9657092 C7.26625608,11.8974478 7.17186752,11.8598479 7.074,11.8611159 L7.074,11.8611159 Z M10.913,7.39057544 L9.446,7.39057544 C9.27784688,7.38942598 9.13942033,7.52252104 9.13399999,7.69058153 L9.13399999,7.69058153 L9.13399999,18.3630439 C9.13942034,18.5311044 9.27784689,18.6641995 9.446,18.6630749 L9.446,18.6630749 L10.913,18.6630749 C11.0813654,18.6647331 11.2201046,18.5313374 11.225,18.362044 L11.225,18.362044 L11.225,7.69058153 C11.2195797,7.52252104 11.0811531,7.38942598 10.913,7.39057544 L10.913,7.39057544 Z M14.777,14.0582995 L13.15,14.0582995 C13.0897943,14.0575379 13.0317369,14.0806878 12.9886024,14.1226947 C12.9454678,14.1647017 12.9207904,14.2221238 12.92,14.2823263 L12.92,14.2823263 L12.92,18.4390397 C12.9207904,18.4992422 12.9454678,18.5566643 12.9886024,18.5986713 C13.0317369,18.6406782 13.0897943,18.6638281 13.15,18.6630701 L13.15,18.6630701 L14.778,18.6630701 C14.9018474,18.6647226 15.0041922,18.5668331 15.007,18.4430395 L15.007,18.4430395 L15.007,14.2823263 C15.0048092,14.1571948 14.9021527,14.0572218 14.777,14.0582995 L14.777,14.0582995 Z" id="形状结合" fill="#495060"></path>
                        </g>
                    </g>
                </g>
            </g>
        </g>
    </g>
</svg>