<?xml version="1.0" encoding="UTF-8"?>
<svg width="24px" height="24px" viewBox="0 0 24 24" version="1.1" xmlns="http://www.w3.org/2000/svg" xmlns:xlink="http://www.w3.org/1999/xlink">
    <title>属性</title>
    <g id="toolbar展示20221114" stroke="none" stroke-width="1" fill="none" fill-rule="evenodd">
        <g id="BIM图标" transform="translate(-1119.000000, -955.000000)">
            <g id="编组-17" transform="translate(951.000000, 955.000000)">
                <g id="属性" transform="translate(168.000000, 0.000000)">
                    <rect id="矩形" x="0" y="0" width="24" height="24"></rect>
                    <g id="a-baobiaoshuju-06" transform="translate(2.000000, 1.500000)" fill-rule="nonzero">
                        <path d="M13.9700375,0 C15.0936329,0 16.0299625,0.935828884 16.0299625,2.0962567 L16.0299625,2.0962567 L16.0299625,20.4385027 C16.0299625,20.7379679 15.7677902,21 15.4681648,21 L15.4681648,21 L2.0599251,21 C0.936329595,21 0,20.0641711 0,18.9411765 L0,18.9411765 L0,2.05882354 C0,0.935828884 0.936329595,0 2.0599251,0 L2.0599251,0 Z M12.4241203,12.78 L3.46906371,12.78 C3.05707867,12.78 2.72,13.1168984 2.72,13.5286631 C2.72,13.9404278 3.05707867,14.2773262 3.46906371,14.2773262 L3.46906371,14.2773262 L12.4241203,14.2773262 C12.8361053,14.2773262 13.173184,13.9404278 13.173184,13.5286631 C13.173184,13.1168984 12.8361053,12.78 12.4241203,12.78 L12.4241203,12.78 Z M9.42411984,8.28 L3.46906366,8.28 C3.05707865,8.28 2.72,8.6168984 2.72,9.02866309 C2.72,9.44042779 3.05707865,9.77732619 3.46906366,9.77732619 L3.46906366,9.77732619 L9.42411984,9.77732619 C9.83610488,9.77732619 10.1731835,9.44042779 10.1731835,9.02866309 C10.1731835,8.6168984 9.83610485,8.28 9.42411984,8.28 L9.42411984,8.28 Z M7.43910112,3.78074868 L3.46906366,3.78074868 C3.05707865,3.78074868 2.72,4.11764707 2.72,4.52941177 C2.72,4.94117647 3.05707865,5.27807487 3.46906366,5.27807487 L3.46906366,5.27807487 L7.43910112,5.27807487 C7.85108614,5.27807487 8.18816479,4.94117647 8.18816479,4.52941177 C8.18816479,4.11764707 7.85108614,3.78074868 7.43910112,3.78074868 L7.43910112,3.78074868 Z" id="形状结合" fill="#0E80E7"></path>
                        <path d="M18.4269663,8.90909092 L17.5280899,8.90909092 L17.5280899,20.9625669 L17.9400749,20.9625669 C19.0636704,20.9625669 20,20.026738 20,18.9037433 L20,10.4812834 C20,9.62032087 19.2883895,8.90909092 18.4269663,8.90909092 Z" id="路径" fill="#95C9FC"></path>
                    </g>
                </g>
            </g>
        </g>
    </g>
</svg>