<?xml version="1.0" encoding="UTF-8"?>
<svg width="24px" height="24px" viewBox="0 0 24 24" version="1.1" xmlns="http://www.w3.org/2000/svg" xmlns:xlink="http://www.w3.org/1999/xlink">
    <title>模型树</title>
    <g id="属性20230508" stroke="none" stroke-width="1" fill="none" fill-rule="evenodd">
        <g id="属性" transform="translate(-732.000000, -856.000000)" fill-rule="nonzero">
            <g id="编组-10" transform="translate(612.000000, 844.000000)">
                <g id="模型树" transform="translate(120.000000, 12.000000)">
                    <rect id="矩形" fill-opacity="0" fill="#FFFFFF" x="0" y="0" width="24" height="24"></rect>
                    <g id="编组-3" transform="translate(2.000000, 2.000000)">
                        <path d="M3.00803548,13.4744591 C3.46702096,13.4744591 4.0021601,13.2479541 4.0021601,12.8992023 L4.0021601,11.0565255 L9.00701438,11 L9.00701438,12.6320716 C9.00706944,13.0972095 9.54093114,13.4744591 10,13.4744591 C10.4590689,13.47428 10.9991081,13.0972259 10.9992182,12.6320716 L10.9992182,11 L16.0084462,11 L16.0084462,12.6320716 C16.0081014,12.8555582 16.0955601,13.0699933 16.2515124,13.2280318 C16.4074647,13.3860703 16.7975689,13.4747142 17.0181317,13.4744591 C17.4771172,13.4744591 18.0008177,13.0971414 18.0008177,12.6320716 L18.0008177,8.85592483 C18.0015579,8.63266674 17.9145319,8.41828785 17.7589349,8.26021103 C17.603338,8.10213422 17.3919944,8.0133883 17.1716558,8.01360481 L10.9992182,7.9936631 L10.9992182,7.55841193 C10.9991081,7.09327402 10.4590527,6.70665141 10,6.70665141 C9.54098622,6.70676298 9.0071245,7.11325519 9.00701438,7.57835365 L9.00701438,8.01360481 L2.84934681,7.9936631 C2.39036132,7.9936631 2.0180465,8.27662603 2.0180465,8.62537784 L2.0180465,12.8227352 C2.0180465,13.171487 2.54905,13.4744591 3.00803548,13.4744591 Z" id="路径" fill="#495060"></path>
                        <path d="M2.50004999,15 C1.11979844,15 0,16.1197984 0,17.50005 C0,18.8802016 1.11979844,20 2.50004999,20 C3.88020156,20 5,18.8802016 5,17.50005 C5,16.1198984 3.88020156,15 2.50004999,15 Z" id="路径" fill="#495060"></path>
                        <path d="M10.00005,15 C8.61979844,15 7.5,16.1197984 7.5,17.50005 C7.5,18.8802016 8.61979844,20 10.00005,20 C11.3802016,20 12.5,18.8802016 12.5,17.50005 C12.5,16.1198984 11.3802016,15 10.00005,15 Z" id="路径" fill="#495060"></path>
                        <path d="M17.50005,15 C16.1197984,15 15,16.1197984 15,17.50005 C15,18.8802016 16.1197984,20 17.50005,20 C18.8802016,20 20,18.8802016 20,17.50005 C20,16.1198984 18.8802016,15 17.50005,15 Z" id="路径" fill="#495060"></path>
                        <path d="M9.98096267,5 C11.3612142,5 12.4810127,3.88188693 12.4810127,2.49889969 C12.4810127,1.11801304 11.3612142,0 9.98096267,0 C8.60081109,0 7.48101266,1.11811307 7.48101266,2.49889969 C7.48101266,3.88188693 8.60081109,5 9.98096267,5 L9.98096267,5 Z" id="路径" fill="#C4C4C4"></path>
                    </g>
                </g>
            </g>
        </g>
    </g>
</svg>